<svg xmlns="http://www.w3.org/2000/svg" version="1.1" xmlns:xlink="http://www.w3.org/1999/xlink" xmlns:svgjs="http://svgjs.com/svgjs" width="64" height="64"><svg id="SvgjsSvg1005" xmlns="http://www.w3.org/2000/svg" viewBox="0 0 64 64"><defs><style>.cls-1{fill:#8456c1;}.cls-1,.cls-2,.cls-3,.cls-4{stroke-width:0px;}.cls-2{fill:#fff;}.cls-3{fill:#ccbde5;}.cls-4{fill:#db9cc5;}</style></defs><g id="SvgjsG1004"><g id="SvgjsG1003"><path class="cls-2" d="m53.74,4.65v44h-.8v8.32h.8v2.38H17.4c-.87,0-1.7-.14-2.47-.42-2.72-.93-4.66-3.38-4.66-6.22V11.78c0-3.94,3.2-7.14,7.14-7.14h36.34m0-2H17.4c-5.04,0-9.14,4.1-9.14,9.14v40.93c0,3.63,2.42,6.89,6.02,8.11.97.34,2.03.52,3.12.52h36.34c1.1,0,2-.9,2-2v-2.38c0-.65-.31-1.23-.8-1.6v-5.13c.49-.36.8-.95.8-1.6V4.65c0-1.1-.9-2-2-2h0Z"></path></g><path id="SvgjsPath1002" class="cls-3" d="m52.94,47.88v9.86H15.98c-2.67,0-4.92-2.31-4.92-5.04s2.17-4.82,4.92-4.82h36.96Z"></path><path id="SvgjsPath1001" class="cls-1" d="m17.4,48.65h36.34V4.65H17.4c-3.94,0-7.14,3.2-7.14,7.14v40.93c0,2.84,1.94,5.29,4.66,6.22.77.27,1.61.42,2.47.42h36.34v-2.38H17.4c-2.58,0-4.76-1.95-4.76-4.26s2.09-4.07,4.76-4.07Z"></path><path id="SvgjsPath1000" class="cls-4" d="m44.33,21.34c-.69,5.62-12.25,11.13-12.25,11.13,0,0-9.69-8.13-8.99-13.75.42-3.39,3.56-5.84,7.04-5.41,1.64.2,3.1,1.07,4.13,2.27,1.29-.92,2.92-1.4,4.56-1.2,3.48.43,5.93,3.57,5.52,6.96Z"></path></g></svg><style>@media (prefers-color-scheme: light) { :root { filter: none; } }
</style></svg>