<svg xmlns="http://www.w3.org/2000/svg" id="Layer_2" viewBox="0 0 1200 1200">
  <defs>
    <style>
      .cls-1{fill:#ccc;}.cls-2{fill:#bed99a;}.cls-3{fill:#ffb8b8;}.cls-4{fill:#f8bda8;}.cls-5{fill:#afe2df;}
    </style>
  </defs>
  <g id="tile" style="opacity:.4">
    <path id="tile_triangle_d" d="M540 1008c-1 1 5 18 7 24l3 8 1 4h2l2-3 4-4 5-5 6-6 4-5 4-3 1-2v-1c0-1-38-9-39-7Zm544 131c-1-1-40 3-40 5s11 15 15 21l5 7 2 3h1l1-1 1-3 3-5 3-7 3-7 3-6 2-4 1-2v-1ZM849 699l-7-6-2-3h-2v1l-1 3-1 6-2 7-2 7-2 7-1 5-1 1v1c1 1 39-9 39-11s-14-14-18-18Zm161 175h-1l-3-1-6-1-7-1-8-1-6-1-5-1h-3c-1 1 13 37 16 37l15-20 6-7 2-3v-1ZM506 709l-4 1-8 2c-6 2-23 6-24 8a175 175 0 0 0 29 28v-3l1-4 2-7 1-7 2-8 1-5 1-4-1-1ZM381 147l-9-1-4-1-1 1v1l1 3 2 6 3 6 2 8 3 6 1 5 1 1v1h1c1 0 26-30 24-31-1-2-18-4-24-5ZM124 5v1h1l3-3 3-3h-9l1 2 1 3Zm27 1173a175 175 0 0 0-39-10v1l1 2 1 4 2 7 3 7 2 7 1 4h9l3-3c4-5 17-17 17-19Zm975-101-2-3-4-5-4-6-4-6-4-6-3-4-1-1-1-1c-1 1-17 36-15 37 1 1 18-1 25-2l9-1 4-1v-1Zm44-655-4 1h-13l-8 1h-6l-5 1h-3c0 1 21 33 23 33 2-1 9-17 11-23l4-8 2-4-1-1ZM612 314l-1 1-1 1-2 4-4 6-4 7-3 6-3 5-2 3v2h13c7 0 24 2 25 1 2-2-17-36-18-36Zm186 155v22a1781 1781 0 0 0 0 13v4l1 1 4-2 8-4c5-3 21-11 21-13 1-2-33-21-34-21Zm315 71a411 411 0 0 1-10-1h-7l-8-1h-6l-5-1h-3v1c0 1 17 35 19 35 2-1 11-16 14-21l5-8 2-3-1-1ZM143 999h-38l-1 1 2 3 4 8 12 22a175 175 0 0 0 22-34h-1Zm384-194-3 25-1 8-1 5h2l3-1 6-3 7-2 7-3 6-3 4-2h2v-1h1c0-1-31-25-33-23Zm-82 16h-2l-5 1-7 1-7 2-7 1-6 1-4 1-1 1 3 3 6 7c4 5 14 19 16 19a175 175 0 0 0 14-37Zm452-415v8l1 7v15a1183 1183 0 0 0 1 9v1h1l4-2 7-5 21-13c1-2-34-20-35-20Zm-53-128-2 25v13h1l3-1 6-3 6-3 7-3 6-3 5-2 1-1 1-1c0-1-32-23-34-21ZM472 489l-4-2-8-3c-6-3-22-11-23-10a174 174 0 0 0 4 40l2-1 4-3 5-4 6-5 6-5 4-3 3-2 1-1v-1Zm-361-11-8-4c-6-3-21-13-22-12a174 174 0 0 0 0 40h1l1-1 4-3 6-3 7-4 6-4 5-4 3-1v-2l-3-2Zm136-353-8 3-4 1v2l3 2 5 4 5 5 6 5 5 4 4 3 1 2h1c1-1 8-39 6-40l-24 9Zm930 1008-2 1-5 2-6 2-7 3-7 3-5 2-4 1v2l3 2 7 6c4 4 17 16 19 16a175 175 0 0 0 7-40ZM342 469l-21 14-7 5-4 2 1 1 3 2 5 3 7 3 7 4 6 3 4 2 2 1h1c1-1-2-40-4-40ZM5 559l2-5 2-3v-2H0v19l1-2 4-7Zm1191-10-25 1a174 174 0 0 0 20 35l1-1v-1l3-5 3-6 2-4v-19h-4ZM192 703h-2l-5-1h-7l-8-1-7-1h-11l-1 1 2 4 4 8c3 6 9 23 11 23a180 180 0 0 0 24-33Zm827-571v1h1l1 1 4 3 6 4 6 5 5 4 5 4 3 2h2v-4l1-9c1-7 5-24 4-25-2-2-38 13-38 14Zm-737 923-6-6c-4-5-14-20-16-20a175 175 0 0 0-14 38l2-1h5l7-2 7-1 7-1 6-2h4l1-1-3-4Zm688-101-4 1-5 2-7 2-8 2-6 2-5 1h-2v1c-1 1 27 28 29 27s5-18 6-24l2-9 1-4-1-1ZM15 117v29a1214 1214 0 0 0 1 10l1 1 3-2 8-5c5-3 21-11 21-13 1-2-33-20-34-20Zm176 965c-1-1-38 10-38 12s13 13 18 17l6 6 3 3h2v-1l1-3 1-6 2-7 2-7 1-7 2-5v-2Z" class="cls-1"/>
    <path id="tile_triangle_c" d="M711 1075h-14l-8-1h-18l-1 1 2 4 4 8 12 23a182 182 0 0 0 23-35Zm76-499-4 2-8 3c-6 3-24 9-24 11a183 183 0 0 0 33 25l1-2v-5l1-7v-8l1-8 1-6v-4l-1-1ZM408 384c-2 0-12 16-16 21l-5 8-2 3v1h1l3 1 7 1h7l8 1 7 1 5 1h3c0-1-16-38-18-38Zm-157-65-7-6-18-19a182 182 0 0 0-11 41l2-1 5-1 7-2 7-3a2022 2022 0 0 0 14-3l3-2h1v-1l-3-3Zm419-204-4 2-8 3-25 9a182 182 0 0 0 32 27l1-2v-5l1-7 2-8 1-7 1-7v-4l-1-1Zm218-29-1-5-1-7v-8l-1-8-1-6v-4l-2-1-3 3-8 5c-5 4-21 14-21 16a182 182 0 0 0 38 17v-2ZM47 821h-1l-3 1h-6l-8 1h-8l-7 1H9l-2 1H6c0 1 23 34 25 34 2-1 8-18 11-24l4-9 2-4-1-1Zm66-213-5-8c-4-6-13-22-15-22a183 183 0 0 0-19 37h8l7-1h8l7-1h7l3-1h1v-1l-2-3Zm851-406-8-3-4-2-1 1v5l2 6 1 7 1 8 2 7 1 5v2l1 1c1 0 31-27 30-29l-25-8ZM372 47l-2-3-4-5-5-6-5-6-4-5-3-4-2-1v-1h-1c-1 0-15 39-13 40s20-4 26-5l9-2h4l1-2h-1Zm542 1097-3-3-4-4-6-6-5-5-5-5-4-4-1-1h-1c-1 0-11 39-9 40 1 1 19-5 25-7l9-2 4-2v-1ZM789 210l-2-1-5-1-7-2-7-1-8-2-6-2h-3l-1-1-1 1 1 4 3 9c1 7 5 25 7 26a182 182 0 0 0 30-30h-1ZM456 980h-1l-3-2-5-3-7-4-7-4-6-3-4-3-2-1h-1c-1 1 0 41 2 42 2 0 17-10 23-14l7-4 4-3v-1ZM336 605v-2l-1-5-1-7-1-8-1-8-1-6-1-3v-1l-1-1-3 3-8 6c-5 4-20 14-20 16a182 182 0 0 0 38 16Zm847-378c-2 0-10 16-14 22l-5 8-2 3 1 2h18l8 1h11v-8c-6-11-15-29-17-28ZM615 691l-5-1-9-2c-6-2-24-7-25-6a183 183 0 0 0 11 40h1l1-2 4-3 4-6 6-5 5-6 4-5 2-2 1-1v-1Zm433-251v-2l-2-5-2-7-2-7-2-7-2-6-1-4-1-1-3 3-7 7c-5 5-18 17-18 19a182 182 0 0 0 40 11v-1ZM751 693l-2-1-5-1-7-2-8-1-7-2-6-2h-4v-1l-1 1 1 4 2 9 7 26a182 182 0 0 0 30-30Zm-52 90h-2l-5-1-7-2-8-1-7-1-6-2h-5l-1 1 2 4 3 9 8 24a182 182 0 0 0 28-31Zm382 136h-1l-1 1-4 4-5 5-5 6-5 6-4 4-3 3v1l4 1 9 3c6 2 24 7 25 6a182 182 0 0 0-10-40Zm45-612-4-1-9-4c-6-2-23-10-25-9a182 182 0 0 0 6 41h1l1-1 4-3 6-5 6-5 6-5 4-4 3-2h1v-2Zm-458 99v1c-1 0-1 0 0 0v2l1 5 2 7 2 7 2 8 2 6 1 3v1h1c2 0 3-2 4-3l6-6c5-5 19-17 19-19s-39-12-40-12ZM205 585h-1v1l-2 1-3 4-4 5-5 6-5 6-4 5-2 3h-1l1 2h4l9 2c6 1 24 6 26 5s-12-40-13-40Zm629 349-4-2-9-4-24-10a183 183 0 0 0 4 42h1l1-2 4-3 6-4 6-5 6-4 5-4 3-2 1-1v-1Zm294-242-8 25-3 8-2 4 1 1h5l6-2 7-1 8-1 7-2 5-1h2l1-1c0-1-27-31-29-30ZM346 880l-4 2-5 2-7 3-8 3-6 3-5 1-2 1v1c0 1 32 26 34 24l3-26 1-9v-4l-1-1Zm291-652-9 3-4 1v1l3 3 4 4 5 6 5 6 5 5 4 4 1 1h1c1 0 12-39 10-40-1-1-19 4-25 6Zm-137-72-2-1-3-4-4-6-5-6-5-6-4-4-3-3v-1h-1l-2 4-3 9-10 25a182 182 0 0 0 42-6l-1-1c1 0 1 0 0 0ZM3 263h1l-4-8v8h3Z" class="cls-2"/>
    <path id="tile_triangle_b" d="M769 352v-5l-1-7-1-7-1-7v-6l-1-4-1-1-3 2-8 5-20 15a174 174 0 0 0 36 17s1 0 0 0v-2Zm-373 811v1l1 2 4 3 4 5 6 5 5 5 4 5 2 2h2l1-4 3-8c2-6 8-23 7-24-1-2-39 7-39 8Zm718-1020 1 1 1 1 4 2 6 4 6 5a1273 1273 0 0 0 14 9h1l1-4 1-9c0-6 3-24 2-25-2-2-37 15-37 16Zm-580 68h-1l-1 1-4 2-6 4-7 3-6 4-6 3-3 1v2l3 2 8 5c5 3 19 13 21 13a174 174 0 0 0 2-40Zm496 845h-7l-6-1-8-1-7-1-6-1h-4l-1 1 2 4 3 8c2 6 8 22 10 23a174 174 0 0 0 25-31l-1-1Zm-29-438-7 24-2 9-2 4 1 1h1l3-1 6-2 7-1 8-2 6-1 5-1 2-1c1-1-26-30-28-29ZM880 843h-4l-9 1h-25a175 175 0 0 0 20 35l1-1v-1l3-5 3-6 3-6 4-7 2-5 2-3v-2ZM383 670v1l2 1 4 2 6 4 7 4 6 4 5 3 3 2 1 1 1-1v-4l1-9c0-7 2-25 1-26-1-2-37 16-37 18Zm648 121v1l1 1 3 4 3 6 4 7 4 6 4 5 1 3h2l2-3 4-8 12-22c-1-2-39-1-40 0Zm144-751h-1l-3-2-5-2-7-3-7-3-6-3-4-2-2-1h-1c-1 1 3 40 5 40s15-11 21-15l7-5 3-3v-1ZM868 1046h-2l-4-2-6-2-8-3-6-3-6-2-3-1h-1l-1 1 1 4 1 8 4 25a174 174 0 0 0 32-24l-1-1ZM425 312l-1-6-1-7v-8l-1-6-1-5v-3c-1 0-33 23-32 25l23 10 8 3 4 2 1-1v-4Zm171 122c-1-1-41 4-41 6s11 16 15 21l6 7 3 4 1-1 2-3 2-6 3-7 3-7 3-6 2-5 1-2v-1Zm-35 478-11 22-4 8-2 4 1 1h10l7-1h14l5-1h3c0-1-21-34-23-33Zm-84 159-21 14-7 5-3 2v1l3 2 6 3 6 3 7 4 6 3 4 2 2 1h1c0-1-2-40-4-40ZM768 60c-1 0-35 18-34 20 0 2 16 10 21 13l8 5 3 2 1-1v-4l1-6V74l1-6v-8h-1ZM499 1187l-4-3-1 1v4l-1 6-1 5h24l-10-8-7-5ZM491 9l-1 7-1 5v3c1 0 37-14 36-16 0-1-4-5-9-8h-24v2l-1 7Zm324 766-4-1-9-1c-7 0-24-3-25-2a175 175 0 0 0 15 37l1-1 1-1 3-4 4-6 4-6 4-6 4-5 2-3v-1Zm59-622-7-6-3-3h-1v1l-1 3-2 6-2 7-2 7-1 7-2 4v3c1 1 38-9 38-11s-13-14-18-18ZM87 294l-7-4-4-2-1 1v38l1 1c1 0 34-20 33-22l-22-12Zm178 674v-11l-1-8v-17l-1-1-4 2-7 5c-6 3-21 11-22 13a174 174 0 0 0 35 20v-3ZM99 198l-2-4h-1l-3 3-4 5-4 5-5 6-5 5-3 3-1 2h-1v1c1 1 39 8 40 6 1-1-6-18-8-24l-3-8Zm33 703h1v1l1 1 3 3 5 5 5 6 5 5 4 4 3 3h1l2-4 2-8 8-24c-1-2-39 7-40 8ZM75 721l-1-4-1-1v1l-3 2-4 4-6 5-5 5-5 5-4 3-1 1v1c0 1 37 13 38 11s-4-19-5-25l-3-8ZM21 16l-9 1-4 1v1l2 3 4 5 5 6 4 6 4 5 3 4 1 1 1 1c1 0 16-36 14-38-1-1-19 3-25 4Zm268 182-1 1v2l-1 5-1 6-1 8-1 7-1 6v4l1 1 4-2 8-3c6-2 23-7 23-9 1-2-29-26-30-26ZM56 1090l-6-6c-4-5-15-18-17-18a174 174 0 0 0-12 38h2l5-2 7-1 7-2 7-2 6-1 3-1h1v-2l-3-3Zm319 15-1-4-2-5-2-7-2-8-2-6-2-5v-1l-1-1c-1 0-27 29-26 30 1 2 18 4 25 6l8 1 4 1 1-1ZM211 212l-3-1-6-2-7-2-7-2-7-2-4-2h-3c-1 1 8 38 10 38s14-12 18-17l7-6 3-3-1-1ZM68 972l-2-3-2-5-4-7-3-6-3-6-3-5v-1l-1-1c-1 0-22 33-20 35h25l9 1h4v-2Zm111-603h-2l-4-2-6-2-8-3-6-3-6-2a317 317 0 0 0-5 0l1 4 1 8 4 25a174 174 0 0 0 32-24l-1-1Z" class="cls-5"/>
    <path id="tile_triangle_a" d="M294 656v-4l-1-1h-1l-3 2-5 3-7 4-6 4-6 4-5 2-1 1-1 1c0 1 35 21 37 19 1-1 0-19-1-26v-9Zm394 234-1-1-3-1-5-4-6-4-7-4-6-3-4-3-2-1h-1c-1 1-2 41 1 41 1 1 17-9 22-12l8-5 4-2v-1Zm-490-91v-4h-2l-3 2-5 4-6 5-6 4-5 5-4 3-2 1v1c0 1 37 16 38 14 1-1-2-19-3-26l-2-9Zm874-753-7-6c-5-4-18-17-20-16a180 180 0 0 0-7 40h1l2-1 4-1 7-3 7-3 7-3 6-2 3-1 1-2-4-2ZM242 462l-1-6-1-8-1-7-1-7-1-5v-2l-1-1c-1 0-32 25-31 27l24 9 9 3 4 2 1-1-1-1v-3Zm371 59h-4l-9 1-26 1a180 180 0 0 0 22 35l1-2 2-4 4-7 3-7 3-6 3-6 2-3v-1l-1-1Zm538 411v3l2 5 2 7 2 7 2 7a1310 1310 0 0 1 3 9v1h2l3-3 6-6c5-5 18-17 18-19s-39-11-40-11ZM522 358l-4-26a179 179 0 0 0-32 26v1h2l5 2 6 2 8 3 7 2 5 2 4 2 1-1v-4l-2-9Zm61-289c-1-1-38 15-38 17s16 12 21 15l7 6 4 2h1v-4l1-7 1-7 1-8 1-7 1-5v-2h-1ZM243 1141c-2 1-5 19-6 26l-2 9-1 4 1 1 1-1 3-1 6-1 7-3 8-2 6-2 5-1 2-1h1c0-2-29-29-31-28Zm727 58-1-2h-13c-7-1-25-2-26-1l1 4h38l1-1ZM948 33h1v-1l1-2 3-4 3-6 5-6 3-7 4-5 1-2h-38c4 10 16 33 17 33ZM294 772v8l1 7v8l1 7v10l2 1 3-2 8-5 22-14c0-2-36-20-37-20Zm497 365-9 1h-4l-1 1 2 4 4 5 4 6 4 7 4 5 2 5 1 1 1 1c1 0 20-36 18-38-1-1-19 1-26 2Zm-62-144-2-2-4-5-5-6-4-7-4-5-3-4-1-2h-1c-1 0-17 37-15 38 1 1 19-2 25-3l9-1 5-1v-2Zm-113 203-6-6-3-3h-1a455 455 0 0 1-3 10l-1 3h18l-4-4ZM598 11l-2 7-1 5-1 2v1c1 0 40-9 40-11L620 0h-18l-1 4-3 7Zm362 724-4 1-8 2c-7 2-24 6-25 8a180 180 0 0 0 29 29v-1l1-2 1-4 1-7 2-8 2-7 1-6 1-4-1-1Zm-344 379-1-1-4-3-5-5-6-5-6-5-5-4-2-2h-2l-1 4-2 9c-1 6-6 24-5 25a179 179 0 0 0 40-12l-1-1Zm272-515-2-4h-2l-2 3-4 5-4 6-5 6-5 5-3 4-1 2v1c0 1 40 6 41 4a2998 2998 0 0 0-13-32Zm63-289h-1l1 1v1l3 5 3 6 4 7 3 7 3 5 2 3v1h1l2-4 6-7c3-6 14-20 14-22-1-2-41-4-41-3ZM691 562h-2l-5-1h-15l-7-1h-10l-1 1 2 4 4 8 11 23a180 180 0 0 0 24-34h-1ZM203 50h-13l-26 1a180 180 0 0 0 21 35h1l1-2 2-4 3-6 4-7 3-7 3-5 2-4-1-1Zm784 481-8-4-23-12a180 180 0 0 0 1 42l1-1 1-1 5-2 5-4 7-5 6-4 5-3 3-2h1v-2l-4-2ZM6 354c-1 1 0 19 1 26v13l2 1 3-2 5-4 7-3 6-5 6-3 5-3 1-1h1v-1c0-1-36-20-37-18Zm339-22h-1l-2 1-5 1-7 2-7 2-7 2-6 1-4 1-1 1 3 3 6 7 18 19a180 180 0 0 0 13-40Zm123 242v1h1l1 2 3 3 5 5 6 6 5 5 4 5 2 2 1 1h1l1-4 3-9 8-25c-1-2-40 7-41 8Zm663 266c-1 1 5 19 7 25l2 9 1 4h2l3-3 4-4 5-5 6-6 5-5 3-3 2-2v-1c0-1-39-11-40-9Z" class="cls-3"/>
    <path id="tile_dots" d="M584 613c-10 0-9 16 2 16s8-16-2-16Zm456 101c-11 0-10 18 2 18s9-18-2-18ZM476 900c-5 0-9 5-8 10 0 5 5 8 10 8s8-5 8-10c-1-5-5-8-10-8Zm-132 84c-5 0-9 5-8 10 0 5 5 8 10 8s8-5 8-10-5-8-10-8Zm-99-265c-5 0-9 6-9 11 1 5 5 8 11 8s9-5 8-10c0-5-5-9-10-9ZM50 642c-5 0-9 5-8 10 0 5 5 8 10 8s8-5 8-10c-1-5-5-8-10-8ZM89 58c-10 0-9 16 1 16s9-16-1-16Zm63 74c-11 0-10 18 2 18s9-18-2-18Zm585 16c-10 0-8 15 1 15s9-15-1-15ZM781 8c5 0 7-4 7-8h-16c1 4 4 8 9 8Zm-2 1184c-5 0-7 4-7 8h16c-1-4-4-8-9-8Zm312-730c-5 0-8 5-8 10s5 8 10 8 8-5 8-10c-1-5-5-8-10-8Zm108 586c-10 0-9 16 1 16v-16h-1ZM0 1048v16h1c10 0 9-16-1-16Zm1142-429c-10 0-8 15 2 15s8-15-2-15ZM395 754c-11 0-9 16 2 16s9-16-2-16Zm9-214c-11 0-9 17 2 17s9-17-2-17Zm-234-33c-5 0-9 5-8 10 0 5 5 8 10 8s8-5 8-10c-1-5-5-8-10-8ZM437 69c-5 0-9 5-8 10 0 5 5 8 10 8s8-5 8-10c-1-5-5-8-10-8Zm45 321c-11 0-9 17 2 17s9-17-2-17Zm336 3c-11 0-9 17 2 17s9-17-2-17ZM584 162c-11 0-9 17 2 17s9-17-2-17Zm-207 70c-10 0-8 15 1 15s9-15-1-15ZM38 436c-10 0-9 16 1 16s9-16-1-16Zm18 722c-11 0-10 18 2 18s9-18-2-18Zm666-12c-5 0-9 5-8 10 0 5 5 8 10 8s8-5 8-10-5-8-10-8Zm-381-2c-11 0-9 16 2 16s9-16-2-16Zm633 2c-5 0-9 5-8 10 0 5 5 8 10 8s8-5 8-10-5-8-10-8Zm-69-232c-5 0-9 6-9 11 1 5 6 8 11 8s9-5 8-10c0-5-5-9-10-9Zm-144 141c-5 0-9 6-9 11 1 5 6 8 11 8s9-5 8-10c0-5-5-9-10-9Zm-12-226c-10 0-9 16 2 16s8-16-2-16ZM632 966c-5 0-8 5-8 10s5 8 10 8 8-5 8-10c-1-5-5-8-10-8Zm-24-173c-10 0-9 16 2 16s9-16-2-16Zm63-317c-5 0-9 6-9 11 1 5 6 8 11 8s9-5 8-10c0-5-5-9-10-9Zm81 31c-11 0-10 18 2 18s9-18-2-18Zm138 4c-10 0-9 16 2 16s8-16-2-16Zm186-294c-10 0-8 15 2 15s8-15-2-15ZM914 339c-5 0-8 5-8 10s5 8 10 8 8-5 8-10c-1-5-5-8-10-8Zm258 8c-5 0-9 6-9 11 1 5 6 8 11 8s9-5 8-10c0-6-5-9-10-9ZM944 120c-5 0-9 5-8 10 0 5 5 8 10 8s8-5 8-10-5-8-10-8Zm39-71c-10 0-9 16 2 16s8-16-2-16ZM707 267c-11 0-9 17 2 17s9-17-2-17Zm-90 114c-11 0-10 18 2 18s9-18-2-18ZM491 273c-5 0-9 5-8 10 0 5 5 8 10 8s8-5 8-10c-1-5-5-8-10-8Zm-228 91c-10 0-8 15 1 15s9-15-1-15Zm-54 642c-10 0-9 16 1 16s9-16-1-16ZM101 829c-10 0-9 16 1 16s9-16-1-16Zm615-201c-10 0-8 15 1 15s9-15-1-15Zm165 146c-11 0-10 18 2 18s9-18-2-18Zm189 228c-5 0-8 5-8 10s5 8 10 8 8-5 8-10c-1-5-5-8-10-8Zm-150 52c-10 0-9 16 2 16s9-16-2-16ZM815 105c-11 0-9 17 2 17s9-17-2-17ZM470 640c-11 0-9 16 2 16s9-16-2-16ZM161 295c-10 0-9 16 1 16s9-16-1-16Zm1008-126c-10 0-8 16 2 16s8-16-2-16ZM932 652c-10 0-9 16 2 16s8-16-2-16Zm-141-2c-5 0-9 6-9 11 1 5 6 8 11 8s9-5 8-10c0-5-5-9-10-9ZM245 864c-11 0-9 17 2 17s9-17-2-17Zm873-774c-11 0-10 17 2 17s9-17-2-17ZM593 258c-5 0-9 5-8 10 0 5 5 8 10 8s8-5 8-10-5-8-10-8ZM482 775c-10 0-9 16 2 16s8-16-2-16Zm174-64c-5 0-9 5-8 10 0 5 5 8 10 8s8-5 8-10c-1-5-5-8-10-8Zm-120 3c-11 0-9 17 2 17s9-17-2-17Zm-180-41c-10 0-9 16 1 16s10-16-1-16Zm-60-234c-10 0-9 16 1 16s9-16-1-16Zm-39 107c-5 0-9 5-8 10 0 5 5 8 10 8s8-5 8-10-5-8-10-8Zm-90 99c-5 0-9 5-9 10 1 5 5 8 11 8s8-5 8-10-5-8-10-8Zm393 513c-5 0-9 5-8 10 0 5 5 8 10 8s8-5 8-10c-1-5-5-8-10-8Zm-42-104c-10 0-9 16 1 16s9-16-1-16Zm-90-19c-5 0-9 5-8 10 0 5 5 8 10 8s8-5 8-10c-1-5-5-8-10-8ZM263 16c-10 0-8 15 1 15s9-15-1-15Zm54 92c-11 0-10 17 2 17s9-17-2-17ZM29 270c-5 0-9 5-8 10 0 5 5 8 10 8s8-5 8-10c-1-5-5-8-10-8Zm558 601c-11 0-9 16 2 16s9-16-2-16Zm-75-366c-11 0-9 16 2 16s9-16-2-16Zm216-120c-10 0-8 15 1 15s9-15-1-15Zm177-166c-11 0-9 17 2 17s9-17-2-17Zm-105 53c-5 0-9 6-9 11 1 5 5 8 11 8s9-5 8-10c0-6-5-9-10-9Zm210 82c-11 0-10 18 2 18s9-18-2-18Zm3-92c-10 0-8 15 2 15s8-15-2-15Zm147 517c-5 0-9 6-9 11 1 5 6 8 11 8s9-5 8-10c0-5-5-9-10-9ZM56 537c-11 0-9 17 1 17s10-17-1-17Zm399-340c-5 0-9 6-9 11 1 5 5 8 11 8s9-5 8-10c0-5-5-9-10-9Zm-171 73c-11 0-9 17 2 17s9-17-2-17ZM44 892c-10 0-8 15 1 15s9-15-1-15Zm804 83c-5 0-9 5-8 10 0 5 5 8 10 8s8-5 8-10c-1-5-5-8-10-8Zm-93-57c-5 0-8 5-8 10s5 8 10 8 8-5 8-10c-1-5-5-8-10-8Zm273-357c-11 0-9 17 2 17s9-17-2-17ZM653 46c-11 0-9 16 2 16s9-16-2-16ZM124 948c-11 0-9 18 2 18s9-18-2-18Zm286-48c0-5-5-8-10-8s-8 5-8 10 5 8 10 8 8-5 8-10Z" class="cls-4"/>
  </g>
</svg>
